# xmcd
#
# Track frame offsets:
#	150
#	15448
#	33257
#	57070
#	70190
#	92531
#	106099
#	121125
#	139282
#	151834
#	162902
#	184067
#	200263
#	216046
#
# Disc length: 3058 seconds
#
# Revision: 3
# Processed by: cddbd v1.5.2PL0 Copyright (c) Steve Scherf et al.
# Submitted via: EasyCDDAExtractor 12.0.1.1
#
DISCID=ab0bf00e
DTITLE=Country Crew - The Dane
DYEAR=2004
DGENRE=Country
TTITLE0=Six Days On The Road
TTITLE1=Jesus In A Leather Jacket
TTITLE2=The Dane
TTITLE3=The Ex-Files
TTITLE4=Confused
TTITLE5=There's Nothing I Can Do About it Now
TTITLE6=Cowboy On The Highway
TTITLE7=Take Me Home Country Roads
TTITLE8=Folsom Prison Blues
TTITLE9=Some Broken Hearts 
TTITLE10=Fountain Of Middle Age
TTITLE11=Take ir Easy
TTITLE12=16th Avenue
TTITLE13=On the road again
EXTD=
EXTT0=
EXTT1=
EXTT2=
EXTT3=
EXTT4=
EXTT5=
EXTT6=
EXTT7=
EXTT8=
EXTT9=
EXTT10=
EXTT11=
EXTT12=
EXTT13=
PLAYORDER=
